<?xml version="1.0" encoding="UTF-8"?>
<svg width="42px" height="42px" viewBox="0 0 42 42" version="1.1" xmlns="http://www.w3.org/2000/svg" xmlns:xlink="http://www.w3.org/1999/xlink">
    <title>编组 4</title>
    <g id="数据上报" stroke="none" stroke-width="1" fill="none" fill-rule="evenodd">
        <g id="数据上报/首页" transform="translate(-22.000000, -108.000000)">
            <g id="编组-5" transform="translate(12.000000, 98.000000)">
                <g id="编组-4" transform="translate(10.000000, 10.000000)">
                    <circle id="椭圆形" fill="#FFFFFF" cx="21" cy="21" r="21"></circle>
                    <g id="编组-6" transform="translate(10.000000, 10.000000)" fill-rule="nonzero">
                        <path d="M20.8625927,18.9134858 L15.0514417,13.1436454 L12.484515,15.7892054 L17.9956758,21.8267512 C18.0791782,21.9212355 18.1936075,21.984225 18.3173148,21.9999864 C18.4169827,22.0007999 18.5136049,21.9650194 18.5894708,21.8991891 L20.9058902,19.5150357 C20.9737358,19.4375401 21.0072882,19.3350342 20.9986707,19.2315828 C20.9983887,19.1100494 20.9492073,18.9939443 20.8625927,18.9103363 L20.8625927,18.9134858 Z" id="路径" fill="#4198FD"></path>
                        <path d="M17.5143888,9.25554552 C17.5143888,9.25554552 19.098571,9.94170469 18.987832,13.4899512 L20.1259823,14.6088233 C20.1259823,14.6088233 21.3441107,11.8580051 20.904231,9.50590094 C20.904231,9.50590094 20.867318,7.29597391 16.8499551,4.36588883 C16.8499551,4.36588883 14.8628062,4.57606374 15.0104581,2.55467593 L13.4262759,1 L10.5562915,3.82499762 L11.9559088,5.20040671 C11.9559088,5.20040671 15.419577,5.34258386 14.2014486,8.13049179 L9.00902235,13.2735947 L8.01237183,13.1283267 L2.07860988,18.9575888 C2.07860988,18.9575888 1.6725671,20.3669968 2.70613055,21.2355136 C2.70613055,21.2355136 3.36748819,22.0329417 4.76710547,21.9989429 L10.5839763,16.0615026 L10.6916392,15.0817168 L16.6223251,9.2895444 C16.6223251,9.2895444 16.957618,8.78265208 17.5082366,9.25554552 L17.5143888,9.25554552 L17.5143888,9.25554552 Z" id="路径" fill="#71A5FA"></path>
                        <path d="M19.4399586,18.9323826 L19.1183196,19.946514 C19.0730375,20.0681483 18.9613666,20.1509672 18.8337928,20.1575288 L17.8008367,20.1575288 C17.6744099,20.1497559 17.564233,20.067147 17.5194026,19.946514 L17.1977636,18.9323826 C17.1654349,18.8078376 17.2063568,18.6754636 17.3029148,18.5922392 L18.1379391,17.9654934 C18.2447481,17.8932253 18.383696,17.8932253 18.490505,17.9654934 L19.328622,18.5922392 C19.4287857,18.6730333 19.4724872,18.8065455 19.4399586,18.9323826 L19.4399586,18.9323826 Z" id="路径" fill="#DBE9FF"></path>
                        <path d="M6.57439814,9.47765513 L8.44547127,11.4082841 L10.9814712,8.80051779 L9.03308101,6.7974509 C11.089715,1.95355658 5.1795982,0.0638708609 5.1795982,0.0638708609 C4.07551044,-0.238478861 4.2981836,0.630776582 4.2981836,0.630776582 C6.61151034,2.59604974 6.24657376,3.24169233 6.24657376,3.24169233 C5.9496762,5.50931515 4.04149093,6.37857059 4.04149093,6.37857059 C2.13330566,7.21003231 0.556037459,4.45109115 0.556037459,4.45109115 C-0.0686844813,4.34085947 0.0024472351,5.0557906 0.0024472351,5.0557906 C1.5426033,12.0476277 6.57130551,9.47765513 6.57130545,9.47765513 L6.57439814,9.47765513 Z" id="路径" fill="#4198FD"></path>
                    </g>
                </g>
            </g>
        </g>
    </g>
</svg>