<?xml version="1.0" encoding="UTF-8"?>
<svg width="42px" height="42px" viewBox="0 0 42 42" version="1.1" xmlns="http://www.w3.org/2000/svg" xmlns:xlink="http://www.w3.org/1999/xlink">
    <title>编组 4</title>
    <g id="数据上报" stroke="none" stroke-width="1" fill="none" fill-rule="evenodd">
        <g id="数据上报/首页" transform="translate(-22.000000, -487.000000)">
            <g id="编组-5备份-2" transform="translate(12.000000, 477.000000)">
                <g id="编组-4" transform="translate(10.000000, 10.000000)">
                    <circle id="椭圆形" fill="#FFFFFF" cx="21" cy="21" r="21"></circle>
                    <g id="yujingxinxi" transform="translate(9.500000, 8.000000)" fill-rule="nonzero">
                        <path d="M11.4983713,5.09404027 C16.6427124,5.09404027 20.8128725,9.22879639 20.8128725,14.3294077 L20.8128725,21.0741997 C20.8119737,21.5860271 20.393504,22.0003633 19.8778626,21.9999742 L3.11888001,21.9999742 C2.60334113,22.0002193 2.18503151,21.5859252 2.18413279,21.0741997 L2.18413279,14.329199 C2.18413279,9.22879639 6.35424034,5.09404027 11.4983713,5.09404027 Z M10.6821095,4.90448552e-07 L12.3149221,4.90448552e-07 C12.444862,4.90448552e-07 12.5495814,0.102615104 12.5495814,0.231359284 L12.5495814,3.00990747 C12.5497001,3.0713953 12.5251304,3.13039573 12.4813082,3.17385469 C12.437486,3.21731365 12.3780239,3.24164844 12.3160781,3.2414758 L10.6809535,3.2414758 C10.5521294,3.24134576 10.4476967,3.13777873 10.4474506,3.00990747 L10.4474506,0.231385362 C10.4474085,0.169940054 10.4720096,0.111005477 10.5158211,0.0675962333 C10.5596327,0.0241869894 10.6190506,-0.000125916122 10.6809535,4.90448552e-07 L10.6821095,4.90448552e-07 L10.6821095,4.90448552e-07 Z M1.72395762,3.58001184 C1.76781422,3.5363357 1.82738359,3.51178657 1.88950876,3.51178657 C1.95163394,3.51178657 2.01120331,3.5363357 2.05505991,3.58001184 L4.03510568,5.54444932 C4.07887905,5.58783715 4.10347592,5.6467208 4.10347592,5.70812419 C4.10347592,5.76952758 4.07887905,5.82841122 4.03510568,5.87179906 L2.88077956,7.01868361 C2.78956291,7.10892049 2.64199733,7.10892049 2.55078069,7.01868361 L0.568475544,5.05333343 C0.524637769,5.0099372 0.5,4.95100881 0.5,4.88955424 C0.5,4.82809968 0.524637769,4.76917129 0.568475544,4.72577506 L1.72508731,3.57886443 L1.72393135,3.58001184 L1.72395762,3.58001184 Z M21.2748605,3.58001184 L22.4317349,4.72598368 C22.475444,4.76936307 22.5,4.82820199 22.5,4.88955424 C22.5,4.95090649 22.475444,5.00974542 22.4317349,5.05312481 L20.4494035,7.01868361 C20.3581626,7.10905919 20.2104354,7.10905919 20.1191945,7.01868361 L18.9611903,5.87179906 C18.9174089,5.82841017 18.8928069,5.76952093 18.8928069,5.70811115 C18.8928069,5.64670136 18.9174089,5.58781213 18.9611903,5.54442324 L20.9434955,3.57909913 C21.0347121,3.48886225 21.1822777,3.48886225 21.2734943,3.57909913 L21.2748605,3.58001184 Z M6.47685038,14.6769413 L6.47685038,22 L8.34550413,22 L8.34550413,14.6769413 L6.47687665,14.6769413 L6.47685038,14.6769413 Z" id="形状" fill="#DC6565"></path>
                        <path d="M2.45497244,24 L21.5450276,24 C21.7981785,23.9998661 22.0410116,24.1052134 22.2201045,24.2928665 C22.3991973,24.4805196 22.5,24.7351064 22.5,25.0006186 L22.5,25.7515185 C22.5,25.8880457 22.3930182,26 22.2602705,26 L1.73972946,26 C1.67631478,26.0002598 1.61540523,25.9740545 1.57043322,25.9271611 C1.5254612,25.8802677 1.5,25.8165381 1.5,25.7500265 L1.5,24.9994081 C1.50077028,24.446829 1.92836053,23.999456 2.455214,24 L2.45497244,24 Z" id="路径" fill="#FC8B8B"></path>
                    </g>
                </g>
            </g>
        </g>
    </g>
</svg>