<?xml version="1.0" encoding="UTF-8"?>
<svg width="96px" height="96px" viewBox="0 0 96 96" version="1.1" xmlns="http://www.w3.org/2000/svg" xmlns:xlink="http://www.w3.org/1999/xlink">
    <title>编组</title>
    <g id="数据上报" stroke="none" stroke-width="1" fill="none" fill-rule="evenodd">
        <g id="数据上报/首页" transform="translate(-247.000000, -234.000000)">
            <g id="编组-5" transform="translate(12.000000, 224.000000)">
                <g id="编组" transform="translate(235.000000, 10.000000)">
                    <circle id="椭圆形" fill="#FFFFFF" opacity="0.100000001" cx="48" cy="48" r="48"></circle>
                    <g id="编组-11" transform="translate(22.000000, 20.000000)" fill-rule="nonzero">
                        <path d="M46.0000807,28.312 C38.9700807,26.8520001 31.8840807,30.534 28.9400807,37.174 C26.0000807,43.8140001 27.9920807,51.634 33.7340807,56 L3.06608066,56 C1.36028591,55.9867944 -0.0121156504,54.5938023 -3.55271368e-15,52.888 L-3.55271368e-15,3.11200003 C-3.55271368e-15,1.392 1.3720807,0 3.06608066,0 L42.9340807,0 C44.6280807,0 46.0000807,1.392 46.0000807,3.11200003 L46.0000807,28.312 Z" id="路径" fill="#FFFFFF" opacity="0.300000012"></path>
                        <path d="M9.3340807,11.6660001 C8.47472564,11.6660001 7.77808073,12.362645 7.77808073,13.222 L7.77808073,14.0000001 C7.77808073,14.8593551 8.47472564,15.556 9.3340807,15.556 L37.3340807,15.556 C38.1940807,15.556 38.8880807,14.86 38.8880807,14.0000001 L38.8880807,13.222 C38.8880807,12.3634254 38.1926546,11.6671036 37.3340807,11.6660001 L9.3340807,11.6660001 L9.3340807,11.6660001 Z" id="路径" fill="#3BA5B3"></path>
                        <path d="M9.3340807,21.2780001 C8.47472564,21.2780001 7.77808073,21.974645 7.77808073,22.834 L7.77808073,23.6120001 C7.77918428,24.470574 8.47550607,25.1660014 9.3340807,25.1660014 L29.5540807,25.1660014 C29.9667577,25.1665309 30.3627433,25.0031044 30.654925,24.7116728 C30.9471068,24.4202412 31.1115506,24.024677 31.1120807,23.6120001 L31.1120807,22.8320001 C31.1109772,21.9734261 30.4146553,21.2780001 29.5560807,21.2780001 L9.3340807,21.2780001 L9.3340807,21.2780001 Z" id="路径" fill="#3BA5B3"></path>
                        <path d="M43.5540807,56.0000001 C36.6814492,56.0000001 31.1100807,50.4286315 31.1100807,43.5560001 C31.1100807,36.6833686 36.6814492,31.1120001 43.5540807,31.1120001 C50.4267121,31.1120001 55.9980807,36.6833686 55.9980807,43.5560001 C55.9980807,50.4286315 50.4267121,56.0000001 43.5540807,56.0000001 Z" id="路径" fill="#CEF8F5" opacity="0.300000012"></path>
                        <path d="M45.1120807,43.5560001 L45.1120807,35.776 C45.1120807,34.916645 44.4154358,34.22 43.5560807,34.22 C42.6967256,34.22 42.0000807,34.916645 42.0000807,35.776 L42.0000807,45.112 C42.0000807,45.972 42.6960807,46.666 43.5560807,46.666 L51.3340807,46.666 C51.902929,46.6864039 52.4375202,46.394566 52.7279981,45.9050487 C53.0184761,45.4155313 53.0184761,44.8064688 52.7279981,44.3169514 C52.4375202,43.8274341 51.902929,43.5355962 51.3340807,43.5560001 L45.1120807,43.5560001 L45.1120807,43.5560001 Z" id="路径" fill="#FFFFFF" opacity="0.200000003"></path>
                    </g>
                </g>
            </g>
        </g>
    </g>
</svg>