<?xml version="1.0" encoding="UTF-8"?>
<svg width="96px" height="96px" viewBox="0 0 96 96" version="1.1" xmlns="http://www.w3.org/2000/svg" xmlns:xlink="http://www.w3.org/1999/xlink">
    <title>编组</title>
    <g id="数据上报" stroke="none" stroke-width="1" fill="none" fill-rule="evenodd">
        <g id="数据上报/首页" transform="translate(-247.000000, -361.000000)">
            <g id="编组-5备份-3" transform="translate(12.000000, 351.000000)">
                <g id="编组" transform="translate(235.000000, 10.000000)">
                    <circle id="椭圆形" fill="#FFFFFF" opacity="0.100000001" cx="48" cy="48" r="48"></circle>
                    <g id="w_xiangpian" transform="translate(18.500000, 22.000000)" fill-rule="nonzero">
                        <path d="M42.525,9.211875 C38.965,9.211875 36.075,12.101875 36.075,15.661875 C36.075,19.221875 38.965,22.111875 42.525,22.111875 C46.085,22.111875 48.975,19.221875 48.975,15.661875 C48.975,12.101875 46.085,9.211875 42.525,9.211875 L42.525,9.211875 Z" id="路径" fill="#A1AAFF"></path>
                        <path d="M47.365,0.071875 L10.795,0.071875 C4.865,0.071875 0.045,4.891875 0.045,10.821875 L0.045,40.931875 C0.045,41.261875 0.065,41.591875 0.095,41.921875 C0.105,41.981875 0.105,42.041875 0.115,42.101875 C0.154347744,42.4788831 0.21781108,42.8529828 0.305,43.221875 C0.365,43.501875 0.435,43.781875 0.515,44.051875 C0.535,44.121875 0.565,44.201875 0.585,44.271875 C0.655,44.491875 0.735,44.711875 0.825,44.921875 C0.865,45.021875 0.905,45.131875 0.955,45.231875 C1.055,45.451875 1.155,45.671875 1.275,45.891875 L1.485,46.281875 C1.555,46.391875 1.615,46.501875 1.685,46.621875 C1.825,46.851875 1.985,47.071875 2.135,47.291875 C2.175,47.351875 2.225,47.411875 2.275,47.471875 C2.875,48.261875 3.585,48.961875 4.385,49.551875 C6.175,50.891875 8.395,51.701875 10.805,51.701875 L47.365,51.701875 C51.295,51.701875 54.735,49.571875 56.605,46.411875 C56.645,46.341875 56.695,46.271875 56.735,46.201875 C56.835,46.021875 56.925,45.841875 57.015,45.661875 C57.065,45.551875 57.115,45.451875 57.165,45.341875 C57.245,45.161875 57.315,44.981875 57.385,44.801875 C57.435,44.681875 57.475,44.561875 57.515,44.451875 C57.575,44.271875 57.635,44.081875 57.695,43.891875 C57.725,43.771875 57.755,43.651875 57.785,43.521875 C57.835,43.331875 57.885,43.131875 57.915,42.941875 C57.935,42.831875 57.945,42.711875 57.965,42.601875 C58.045,42.061875 58.1050155,41.511875 58.1050155,40.951875 L58.1050155,10.831875 C58.115,4.901875 53.295,0.071875 47.365,0.071875 Z M54.355,37.141875 L49.135,33.201875 C47.2703951,31.7939106 44.7279873,31.6903015 42.755,32.941875 L35.135,37.771875 C33.875,38.571875 32.205,38.271875 31.305,37.081875 L19.265,21.201875 C17.915,19.421875 15.295,19.261875 13.745,20.861875 L3.805,31.101875 L3.805,10.831875 C3.805,6.9714046 6.9345296,3.841875 10.795,3.841875 L47.355,3.841875 C51.2154704,3.841875 54.345,6.9714046 54.345,10.831875 L54.345,37.141875 L54.355,37.141875 Z" id="形状" fill="#97A1FF"></path>
                    </g>
                </g>
            </g>
        </g>
    </g>
</svg>