<?xml version="1.0" encoding="UTF-8"?>
<svg width="96px" height="96px" viewBox="0 0 96 96" version="1.1" xmlns="http://www.w3.org/2000/svg" xmlns:xlink="http://www.w3.org/1999/xlink">
    <title>编组</title>
    <g id="数据上报" stroke="none" stroke-width="1" fill="none" fill-rule="evenodd">
        <g id="数据上报/首页" transform="translate(-247.000000, -108.000000)">
            <g id="编组-5" transform="translate(12.000000, 98.000000)">
                <g id="编组" transform="translate(235.000000, 10.000000)">
                    <circle id="椭圆形" fill="#FFFFFF" opacity="0.100000001" cx="48" cy="48" r="48"></circle>
                    <g id="编组-12" transform="translate(19.500000, 22.000000)" fill-rule="nonzero">
                        <path d="M21.6179365,3.67377729 C17.8267833,-0.0869533087 12.2152086,-0.960377428 7.57786555,1.05350494 L14.2917139,7.70154202 C16.0731662,9.46507989 16.0898673,12.3356967 14.3306832,14.1159242 L14.2917139,14.1548667 C12.4879935,15.9350942 9.58199939,15.9350942 7.77827893,14.1548667 L1.06443057,7.50126643 C-1.02877589,12.2411222 0.023394379,17.776517 3.70877383,21.414857 C6.94879021,24.6303929 11.5081947,25.7207823 15.6556383,24.7249675 L19.8364842,28.8695597 L20.6158696,28.0962734 C20.8663863,27.8570553 21.1391712,27.6456533 21.4342242,27.4620673 C21.2894812,27.3619295 21.1503053,27.2506653 21.0166964,27.1338379 L20.961026,27.0948954 L20.8775204,27.0225736 L20.7940148,26.9446887 C20.4933947,26.6442753 20.2261769,26.3049194 20.0090624,25.9377475 C18.7509117,23.8737962 19.0682329,21.2201446 20.7773137,19.5066757 L20.8274171,19.4566068 L20.8775204,19.4065379 L22.0911348,18.3495278 L24.5461987,15.9128414 C24.6853747,15.7793243 24.8301177,15.6513705 24.9748607,15.534543 L24.9581596,15.5122902 C26.0103298,11.2564338 24.7410451,6.75579616 21.6179365,3.67377729 Z M50.505299,40.8805321 L34.4054238,24.8974271 L30.4639606,24.8974271 L28.2649804,26.9558151 C27.9253911,27.2896078 27.5356984,27.5733315 27.1181705,27.8014232 C27.1515727,27.8292392 27.190542,27.8514921 27.2239442,27.8848713 L27.2350783,27.901561 L27.3575532,27.9905723 L27.4633269,28.0962734 C27.8029162,28.4411924 28.0979693,28.8306172 28.3262178,29.2589844 C28.5544664,29.2256052 28.782715,29.2144788 29.0109636,29.2089155 C31.538399,29.1977891 33.6427396,31.1393497 33.8375859,33.6539211 C34.5445998,33.887576 35.1903762,34.2825639 35.7248119,34.7999425 C36.7213118,35.7901941 37.2334794,37.1698704 37.1165715,38.5717996 C37.3726553,38.7220063 37.617605,38.8889026 37.8458536,39.0780518 C39.8778226,40.7637047 40.1561745,43.7734018 38.4693619,45.8039738 C38.4637949,45.8151002 38.4526608,45.8206634 38.4470937,45.8317899 L37.7512139,46.6551451 L41.2139118,50.0932094 C43.7914506,52.6355969 47.9388943,52.6355969 50.5164331,50.0932094 C53.0605697,47.5563853 53.0661367,43.4451724 50.5275672,40.902785 C50.5220001,40.8972217 50.5164331,40.8860953 50.505299,40.8805321 L50.505299,40.8805321 Z" id="形状结合" fill="#FFFFFF" opacity="0.300000012"></path>
                        <path d="M24.0228971,29.0030767 C24.6519725,29.00864 25.2587797,29.247858 25.7208438,29.6706621 L25.7208438,29.6706621 L25.8043494,29.7318574 C26.466827,30.3883163 26.7006426,31.356315 26.4111566,32.2408655 L26.4111566,32.2408655 L26.038165,33.4202662 L27.2239442,32.2519919 C28.20931,31.27843 29.790349,31.27843 30.7757148,32.2519919 C31.6274716,33.0920368 31.7555135,34.4216442 31.0763348,35.4063325 L31.0763348,35.4063325 L30.5474662,36.1796189 L31.4326253,35.8625158 C32.3511866,35.5398496 33.3699547,35.762378 34.0658345,36.4410898 C34.9843958,37.34233 35.0456332,38.8054544 34.2105775,39.7845796 L34.2105775,39.7845796 L33.7262451,40.3575903 L34.4833624,40.2741421 C35.156974,40.2073836 35.8305857,40.4132224 36.3483202,40.8471529 C36.8549207,41.2588305 37.177809,41.8652205 37.2056442,42.538369 C37.2668816,43.2003911 37.0553341,43.8512868 36.6266722,44.357539 L36.6266722,44.357539 L34.1660412,47.2615351 L34.0936697,47.3282936 C33.1862424,48.3129819 31.6664409,48.418683 30.6365388,47.5563853 C29.7569467,46.8331678 29.4897289,45.5925718 29.9963294,44.568941 L29.9963294,44.568941 L30.380455,43.7900914 L29.5899356,44.1628266 C28.8940558,44.5133089 28.0757011,44.5133089 27.3798213,44.1683898 C26.1495058,43.5619998 25.6484723,42.0710593 26.2552795,40.8415896 L26.2552795,40.8415896 L26.6505393,40.0571769 L25.8433187,40.4410385 C25.1474389,40.7915207 24.3290842,40.797084 23.6332044,40.4521649 C22.4028889,39.8457749 21.8907214,38.3548343 22.4975286,37.1253647 L22.4975286,37.1253647 L22.8927883,36.3298256 L22.0911348,36.7192503 C21.2449449,37.1420544 20.237311,37.0474798 19.4801937,36.4800323 C18.3834872,35.6511138 18.1663727,34.0934148 18.9958614,32.9974622 L18.9958614,32.9974622 L19.0292636,32.9473933 C19.0905011,32.8695084 19.1461714,32.7971866 19.2185429,32.7193017 L19.2185429,32.7193017 L22.2414448,29.7318574 C22.5754671,29.4036279 22.992995,29.1810995 23.4494922,29.0753985 C23.6387715,29.0253296 23.8280508,29.0030767 24.0228971,29.0030767 Z M47.2096123,9.32043641 L56.0111,18.0435512 C56.0222341,18.0546776 56.0333682,18.065804 56.0389352,18.0936201 C57.3304881,19.4009746 57.3193541,21.5094316 56.0111,22.8000965 L56.0111,22.8000965 L46.0628023,32.6636695 L38.0908033,24.7750364 L35.8250186,22.6109474 L29.5398322,22.6109474 L26.6449722,25.3202311 C26.1606399,25.7986672 25.5204305,26.0935174 24.8356847,26.1547127 L24.8356847,26.1547127 L24.729911,26.1602759 C24.6686736,26.1714024 24.6074362,26.1769656 24.5406317,26.1769656 C23.7946485,26.1769656 23.0765006,25.8932418 22.5253638,25.3869896 L22.5253638,25.3869896 L22.4307241,25.3091047 C22.263713,25.1422083 22.11897,24.9530592 21.9964951,24.7472204 C21.8406181,24.4857495 21.7237102,24.2020257 21.6513387,23.9071755 C21.4063891,22.916924 21.6958751,21.8654771 22.41959,21.1422597 L22.41959,21.1422597 L23.6833078,20.0351807 L26.1884751,17.5539886 C26.7451789,16.9976675 27.5078632,16.6861277 28.2983826,16.6916909 L28.2983826,16.6916909 L39.4428977,16.6923863 L39.4428977,16.6923863 L39.493697,16.6972541 C39.5270992,16.7028173 39.5660685,16.7083805 39.6050377,16.7083805 L39.6050377,16.7083805 L39.7442137,16.7139438 L47.2096123,9.32043641 Z" id="形状结合" fill="#48AFF9"></path>
                    </g>
                </g>
            </g>
        </g>
    </g>
</svg>