<?xml version="1.0" encoding="UTF-8"?>
<svg width="42px" height="42px" viewBox="0 0 42 42" version="1.1" xmlns="http://www.w3.org/2000/svg" xmlns:xlink="http://www.w3.org/1999/xlink">
    <title>编组 4</title>
    <g id="数据上报" stroke="none" stroke-width="1" fill="none" fill-rule="evenodd">
        <g id="数据上报/首页" transform="translate(-22.000000, -234.000000)">
            <g id="编组-5" transform="translate(12.000000, 224.000000)">
                <g id="编组-4" transform="translate(10.000000, 10.000000)">
                    <circle id="椭圆形" fill="#FFFFFF" cx="21" cy="21" r="21"></circle>
                    <path d="M29.5658833,9.01145833 C30.1055359,9.01350526 30.5425031,9.45047246 30.54455,9.990125 L30.54455,22.5066583 C30.54455,22.9450583 30.0658833,23.2282583 29.6754833,23.0143917 L28.0714833,22.1242583 C27.7815596,21.9622889 27.4545058,21.8784808 27.1224167,21.8810583 C26.7882833,21.8810583 26.4568167,21.9583917 26.1736167,22.1242583 L22.7514833,24.0194583 C22.12615,24.372525 21.74375,25.0274583 21.74375,25.7306583 L21.74375,29.4759917 C21.7438984,30.1843376 22.1303618,30.8362133 22.75175,31.1762583 L23.1418833,31.4007917 C23.2970833,31.510125 23.4040167,31.6842583 23.4040167,31.8927917 C23.403137,32.2158013 23.1414267,32.4773924 22.8184167,32.478125 L11.9672167,32.478125 C11.4276683,32.475932 10.9908626,32.0390073 10.9888167,31.4994583 L10.9888167,29.5455917 C10.9908636,29.0059391 11.4278308,28.5689719 11.9674833,28.566925 L13.9216167,28.566925 C14.45895,28.566925 14.9000167,28.128525 14.9000167,27.580525 L14.9000167,25.6343917 C14.8979697,25.0947391 14.4610025,24.6577719 13.92135,24.655725 L11.9672167,24.655725 C11.4277718,24.653533 10.9910087,24.2167698 10.9888167,23.677325 L10.9888167,17.8122583 C10.9908636,17.2726058 11.4278308,16.8356386 11.9674833,16.8335917 L13.9216167,16.8335917 C14.45895,16.8335917 14.9000167,16.3951917 14.9000167,15.8471917 L14.9000167,13.9010583 C14.8979697,13.3614058 14.4610025,12.9244386 13.92135,12.9223917 L11.9672167,12.9223917 C11.4277718,12.9201997 10.9910087,12.4834365 10.9888167,11.9439917 L10.9888167,9.990125 C10.9908645,9.45036887 11.4279933,9.01335914 11.96775,9.01145833 L29.5658833,9.01145833 Z" id="路径" fill="#03A5A5" fill-rule="nonzero"></path>
                    <path d="M26.6466833,22.9767917 C26.9420176,22.8136941 27.3004157,22.8136941 27.59575,22.9767917 L31.0176167,24.878125 C31.3277724,25.0511644 31.5200721,25.378431 31.5202842,25.7335917 L31.5202842,29.470925 C31.5207553,29.8262714 31.3282671,30.1538587 31.0176167,30.3263917 L27.59575,32.2271917 C27.3004157,32.3902892 26.9420176,32.3902892 26.6466833,32.2271917 L23.2248167,30.326125 C22.914661,30.1530856 22.7223613,29.825819 22.72215,29.4706583 L22.72215,25.733325 C22.72215,25.3775917 22.9146833,25.0487917 23.2248167,24.8778583 L26.6466833,22.9767917 Z" id="路径" fill="#4BCCCC" fill-rule="nonzero"></path>
                    <path d="M27.11975,26.134125 C26.3093694,26.1345665 25.6525776,26.7914776 25.6522833,27.6018583 C25.6525776,28.412239 26.3093694,29.0691502 27.11975,29.0695917 C27.9302348,29.0692973 28.587189,28.4123431 28.5874833,27.6018583 C28.5870418,26.7914777 27.9301307,26.1346859 27.11975,26.1343917 L27.11975,26.134125 Z" id="路径" fill="#BBF2EE" fill-rule="nonzero"></path>
                    <path d="M13.3440167,25.631725 C13.6674833,25.631725 13.9269501,25.8935917 13.9269501,26.2143917 L13.9269501,27.0058583 C13.9270209,27.1604591 13.8656191,27.3087442 13.7562748,27.4180384 C13.6469306,27.5273327 13.4986174,27.5886666 13.3440167,27.5885252 L10.5930833,27.5885252 C10.2716934,27.5877924 10.0112964,27.3275146 10.0104167,27.006125 L10.0104167,26.214125 C10.0111498,25.8926313 10.2715896,25.6321915 10.5930833,25.6314583 L13.3440167,25.631725 Z" id="路径" fill="#4BCCCC" fill-rule="nonzero"></path>
                    <path d="M20.1824167,22.7015917 L17.4370833,22.7015917 C17.1153816,22.7021787 16.854737,22.9628233 16.85415,23.284525 L16.85415,24.0730583 C16.854737,24.39476 17.1153816,24.6554046 17.4370833,24.6559917 L20.1824167,24.6559917 C20.5041184,24.6554046 20.764763,24.39476 20.76535,24.0730583 L20.76535,23.284525 C20.764763,22.9628233 20.5041184,22.7021787 20.1824167,22.7015917 L20.1824167,22.7015917 Z" id="路径" fill="#BBF2EE" fill-rule="nonzero"></path>
                    <path d="M27.0264167,17.801325 L17.4370833,17.801325 C17.1153816,17.801912 16.854737,18.0625566 16.85415,18.3842583 L16.85415,19.1727917 C16.854737,19.4944934 17.1153816,19.755138 17.4370833,19.755725 L27.0264167,19.755725 C27.3480142,19.7549913 27.6084968,19.4943895 27.6090833,19.1727917 L27.6090833,18.3842583 C27.6084968,18.0626605 27.3480142,17.8020587 27.0264167,17.801325 L27.0264167,17.801325 Z" id="路径" fill="#BBF2EE" fill-rule="nonzero"></path>
                    <path d="M13.34375,13.8983917 C13.6672167,13.8983917 13.9266834,14.1602583 13.9266834,14.4810583 L13.9266834,15.272525 C13.9267542,15.4271257 13.8653524,15.5754109 13.7560082,15.6847051 C13.6466639,15.7939993 13.4983507,15.8553333 13.34375,15.8551919 L10.5930833,15.8551919 C10.4381557,15.8551218 10.2896287,15.7933818 10.1803037,15.6836065 C10.0709787,15.5738311 10.0098497,15.4250516 10.0104128,15.270125 L10.0104128,14.4807917 C10.0111498,14.1592979 10.2715896,13.8988582 10.5930833,13.898125 L13.34375,13.8983917 Z" id="路径" fill="#4BCCCC" fill-rule="nonzero"></path>
                    <path d="M27.02615,12.9223917 L17.4370833,12.9223917 C17.1153816,12.9229787 16.854737,13.1836233 16.85415,13.505325 L16.85415,14.294125 C16.8548837,14.6157226 17.1154855,14.8762051 17.4370833,14.8767917 L27.0264167,14.8767917 C27.3479104,14.8760585 27.6083502,14.6156187 27.6090833,14.294125 L27.6090833,13.505325 C27.6083502,13.1838313 27.3479104,12.9233915 27.0264167,12.9226583 L27.02615,12.9223917 Z" id="路径" fill="#BBF2EE" fill-rule="nonzero"></path>
                </g>
            </g>
        </g>
    </g>
</svg>