<?xml version="1.0" encoding="UTF-8"?>
<svg width="18px" height="20px" viewBox="0 0 18 20" version="1.1" xmlns="http://www.w3.org/2000/svg" xmlns:xlink="http://www.w3.org/1999/xlink">
    <title>shujushangbao</title>
    <g id="数据上报" stroke="none" stroke-width="1" fill="none" fill-rule="evenodd">
        <g id="首页/项目级" transform="translate(-179.000000, -1715.000000)">
            <g id="底部栏/维保" transform="translate(0.000000, 1703.500000)">
                <g id="shujushangbao" transform="translate(179.000000, 11.500000)" fill="#9E9E9E">
                    <path d="M11.7647059,0 C11.9727018,0 12.1735851,0.0732296055 12.3368888,0.206174997 L12.4301177,0.293000015 L15.7242353,3.793 C15.8713328,3.94924395 15.9647711,4.15189047 15.9918311,4.36856843 L16,4.5 L16,8.5 L14.1176471,8.5 L14.1176471,4.914 L11.3750588,2 L1.88235293,2 L1.88235293,18 L9.41176472,18 L9.41176472,20 L0.941176478,20 C0.458507449,20 0.0606991434,19.6139598 0.00633198248,19.1166211 L0,19 L0,1 C0,0.487164164 0.363331947,0.0644928397 0.831415418,0.00672773137 L0.941176478,0 L11.7647059,0 Z M15.1322177,10.2979235 L18,13.561191 L16.7355646,15 L15,13.025 L15,20 L13,20 L13,14.163 L12.2644354,15 L11,13.561191 L13.8677823,10.2979235 C14.2169774,9.90069218 14.7830226,9.90069218 15.1322177,10.2979235 Z M10,8.99999999 L10,11 L4,11 L4,8.99999999 L10,8.99999999 Z M12,5 L12,7 L4,7 L4,5 L12,5 Z" id="形状结合"></path>
                </g>
            </g>
        </g>
    </g>
</svg>