<?xml version="1.0" encoding="UTF-8"?>
<svg width="96px" height="96px" viewBox="0 0 96 96" version="1.1" xmlns="http://www.w3.org/2000/svg" xmlns:xlink="http://www.w3.org/1999/xlink">
    <title>编组 8</title>
    <g id="数据上报" stroke="none" stroke-width="1" fill="none" fill-rule="evenodd">
        <g id="数据上报/首页" transform="translate(-247.000000, -487.000000)">
            <g id="编组-5备份-2" transform="translate(12.000000, 477.000000)">
                <g id="编组-8" transform="translate(235.000000, 10.000000)">
                    <circle id="椭圆形" fill="#FFFFFF" opacity="0.100000001" cx="48" cy="48" r="48"></circle>
                    <g id="icon_yujing-genzongjiechushenhe" transform="translate(20.500000, 16.000000)" fill-rule="nonzero">
                        <polygon id="路径" fill="#CCD6DD" points="0.371501887 63.8309434 0.49829434 63.6860377 0.362445283 63.8430189"></polygon>
                        <polygon id="路径" fill="#F9C82D" points="2.98886038 60.6067925 2.98886038 60.7818868 4.03942642 59.5562264"></polygon>
                        <polygon id="路径" fill="#F07657" points="38.7564075 24.8392453 4.03942642 59.5562264 2.98886038 60.7818868 2.98886038 62.3215094 54.5299925 62.3215094 54.5299925 24.8392453"></polygon>
                        <polygon id="路径" fill="#F07657" points="2.98886038 24.8392453 2.98886038 60.6067925 4.03942642 59.5562264 33.8024453 24.8392453"></polygon>
                        <polygon id="路径" fill="#F07657" points="33.8024453 24.8392453 4.03942642 59.5562264 38.7564075 24.8392453"></polygon>
                        <path d="M28.757917,0.0271698113 C24.7911245,0.0271698113 20.7881057,0.8 18.2099925,3.26641509 C17.672634,3.78264151 16.9481057,4.89660377 16.9481057,5.97132075 C16.9481057,7.77056604 18.4062189,9.22566038 20.2024453,9.22566038 C20.9481057,9.22566038 21.6273509,8.96603774 22.1767849,8.54339623 C22.1767849,8.54339623 25.853766,6.33660377 28.757917,6.53283019 C33.7390491,6.8709434 38.1133887,9.74490566 39.1156528,13.7388679 C39.2545208,14.3003774 39.3330113,14.88 39.3330113,15.4807547 L39.3330113,18.3849057 L45.2198038,11.52 C43.2303698,4.57660377 36.5707472,0.0271698113 28.757917,0.0271698113 Z" id="路径" fill="#FF997F"></path>
                        <path d="M39.3330113,18.3879245 L39.3330113,24.8392453 L45.8386717,24.8392453 L45.8386717,15.8883019 C45.8386717,14.3456604 45.6092377,12.890566 45.2167849,11.52 L39.3330113,18.3879245 Z" id="路径" fill="#FF997F"></path>
                        <path d="M23.5624453,36.2415094 C23.0350484,36.8395664 22.6088147,37.5197048 22.3005585,38.2550943 L25.0688604,35.0249057 C24.5224453,35.3630189 24.0062189,35.749434 23.5624453,36.2415094 L23.5624453,36.2415094 Z" id="路径" fill="#FF997F"></path>
                        <path d="M35.9247094,45.4913208 L35.9247094,41.5758491 C35.9247094,39.5350943 35.2273509,37.6422642 33.9533887,36.2384906 L33.8748981,36.16 C33.2240121,35.4568825 32.4318554,34.8992865 31.5503698,34.5237736 C31.1836127,33.2880387 30.0469265,32.4413611 28.757917,32.4437476 C27.4679117,32.4383421 26.3296137,33.2862203 25.9654642,34.5237736 C25.648483,34.6596226 25.3616906,34.8437736 25.0688604,35.0249057 L22.3005585,38.2550943 C21.8363144,39.3018885 21.5947265,40.4337532 21.5911245,41.5788679 L21.5911245,45.4943396 L20.072634,47.5230189 C19.7551384,47.8796439 19.5799828,48.340636 19.5805571,48.8181132 L19.5805571,49.8928302 C19.5805571,50.6535849 20.0213132,51.3086792 20.6552755,51.6286792 C20.9231532,51.7674073 21.2200297,51.8408506 21.5216906,51.8430189 L25.9081057,51.8430189 C25.9050868,51.8883019 25.8960302,51.9275472 25.8960302,51.9698113 C25.8960302,53.485364 27.1246284,54.7139623 28.6401811,54.7139623 C30.1557338,54.7139623 31.3843321,53.485364 31.3843321,51.9698113 C31.3843321,51.9275472 31.3752755,51.885283 31.3722566,51.8430189 L35.9941434,51.8430189 C37.0628226,51.8430189 37.9352769,50.9675472 37.9352769,49.8928302 L37.9352769,48.8181132 C37.9358511,48.340636 37.7606956,47.8796439 37.4432,47.5230189 L35.9247094,45.4913208 L35.9247094,45.4913208 Z" id="路径" fill="#FF997F"></path>
                    </g>
                </g>
            </g>
        </g>
    </g>
</svg>