<?xml version="1.0" encoding="UTF-8"?>
<svg width="42px" height="42px" viewBox="0 0 42 42" version="1.1" xmlns="http://www.w3.org/2000/svg" xmlns:xlink="http://www.w3.org/1999/xlink">
    <title>编组 4</title>
    <g id="数据上报" stroke="none" stroke-width="1" fill="none" fill-rule="evenodd">
        <g id="数据上报/首页" transform="translate(-22.000000, -361.000000)">
            <g id="编组-5备份-3" transform="translate(12.000000, 351.000000)">
                <g id="编组-4" transform="translate(10.000000, 10.000000)">
                    <circle id="椭圆形" fill="#FFFFFF" cx="21" cy="21" r="21"></circle>
                    <g id="编组-10" transform="translate(8.688247, 11.501784)" fill-rule="nonzero">
                        <path d="M22.3208937,19.4982164 L2.3079618,19.4982164 C1.20670879,19.4982164 0.311753164,18.5962858 0.311753164,17.4803926 L0.311753164,5.55496792 C0.311753164,4.64220336 1.04325428,3.90549714 1.94355455,3.90549714 L6.1288933,3.89466323 C6.26553888,3.89466323 6.38880856,3.81611012 6.45042911,3.69422136 L7.78213041,1.06158003 C7.95896081,0.714894748 8.30996359,0.498216449 8.69580657,0.498216449 L15.9839516,0.50093215 C16.3556239,0.500492309 16.6965877,0.709371288 16.8681894,1.0426279 L18.2427335,3.69965276 C18.3043827,3.81882582 18.4276523,3.89466323 18.5616113,3.89737893 L22.6799277,3.90821284 C23.5829146,3.90821284 24.3117532,4.64763476 24.3117532,5.55768362 L24.3117532,17.485824 C24.3171023,18.5935701 23.4221467,19.4982164 22.3208937,19.4982164 Z" id="路径" fill="#505FE6"></path>
                        <path d="M12.2817072,16.6614765 C10.7067163,16.6614765 9.22881389,16.0492869 8.11498607,14.9354591 C7.00115825,13.8216312 6.38896863,12.3437288 6.38896863,10.7687379 C6.38896863,9.19374697 7.00115825,7.71584454 8.11498607,6.60201672 C9.22881389,5.48818889 10.7067163,4.87599927 12.2817072,4.87599927 C13.8566982,4.87599927 15.3346006,5.48821766 16.4484284,6.60201672 C17.5622562,7.71581577 18.1744459,9.19374697 18.1744459,10.7687379 C18.1744459,12.3437288 17.5622275,13.8216312 16.4484284,14.9354591 C15.3373047,16.0492869 13.8566982,16.6614765 12.2817072,16.6614765 Z" id="路径" fill="#FFFFFF"></path>
                        <g id="编组-7" transform="translate(2.489262, 1.742213)" fill="#A3ACFF">
                            <path d="M9.79244489,3.63812833 C6.82044422,3.63812833 4.4040198,6.05455275 4.4040198,9.02652465 C4.4040198,11.9985253 6.82044422,14.4149497 9.79244489,14.4149497 C12.7644456,14.4149497 15.18087,11.9985253 15.18087,9.02652465 C15.18087,6.05455275 12.7644456,3.63812833 9.79244489,3.63812833 Z" id="路径"></path>
                            <path d="M2.19258872,0.997868217 L0.498934109,0.997868217 C0.223835695,0.997868217 6.66133815e-15,0.774003755 6.66133815e-15,0.498934109 C6.66133815e-15,0.223864462 0.223835695,6.43929354e-15 0.498934109,6.43929354e-15 L2.19258872,6.43929354e-15 C2.46765837,6.43929354e-15 2.69149406,0.223835695 2.69149406,0.498934109 C2.69149406,0.774032522 2.46765837,0.997868217 2.19255996,0.997868217 L2.19258872,0.997868217 Z" id="路径"></path>
                            <path d="M15.9278903,4.23953034 C15.9264142,4.45055541 16.0381481,4.6461853 16.2206591,4.75212625 C16.4031701,4.8580672 16.6284599,4.8580672 16.8109709,4.75212625 C16.993482,4.6461853 17.1052158,4.45055541 17.1037397,4.23953034 C17.1052158,4.02850528 16.993482,3.83287539 16.8109709,3.72693444 C16.6284599,3.62099349 16.4031701,3.62099349 16.2206591,3.72693444 C16.0381481,3.83287539 15.9264142,4.02850528 15.9278903,4.23953034 L15.9278903,4.23953034 Z" id="路径"></path>
                        </g>
                    </g>
                </g>
            </g>
        </g>
    </g>
</svg>