<?xml version="1.0" encoding="UTF-8"?>
<svg width="20px" height="18px" viewBox="0 0 20 18" version="1.1" xmlns="http://www.w3.org/2000/svg" xmlns:xlink="http://www.w3.org/1999/xlink">
    <title>形状</title>
    <g id="数据上报" stroke="none" stroke-width="1" fill="none" fill-rule="evenodd">
        <g id="数据上报/首页" transform="translate(-46.000000, -744.000000)" fill="#9E9E9E">
            <g id="底部栏/维保" transform="translate(0.000000, 730.000000)">
                <g id="shouye" transform="translate(46.000000, 14.000000)">
                    <path d="M17.3169198,10.6800721 C17.2002918,10.5672509 17.0361405,10.5051302 16.8547079,10.5051302 C16.4848981,10.5051302 16.2164942,10.7566039 16.2164942,11.1030783 L16.2164942,16.0380533 C16.2164942,16.428054 15.8442617,16.7967413 15.4505488,16.7967413 L12.2609134,16.7967413 C11.8918303,16.7967413 11.6239513,17.0482149 11.6239513,17.3947103 C11.6239513,17.7412056 11.8918303,17.9927002 12.2609134,17.9927002 L15.4505488,17.9927002 C16.5753418,17.9927002 17.4904385,17.1158575 17.4904385,16.0380742 L17.4904385,11.1030783 C17.4904385,10.9361473 17.4304388,10.7898395 17.3169198,10.6800721 Z M19.7103072,9.1698286 L10.427611,0.193265863 C10.35247,0.120394336 10.1594493,0.0181566906 9.96459154,0.0181566906 C9.77037977,0.0181566906 9.57683424,0.120666265 9.50143081,0.193433203 L0.218694208,9.16947301 C0.139333866,9.32366614 0.0241796283,9.55081447 0.0142065972,9.62625866 C0.015639974,9.79323149 0.110242503,9.98697689 0.21578709,10.1923934 C0.304050485,10.2615419 0.476781862,10.3430727 0.651168659,10.3430727 C0.846026436,10.3430727 1.03902691,10.240835 1.11384485,10.1682563 L2.31050827,9.01124309 L2.31050827,16.0168026 C2.31050827,17.0965729 3.22588765,17.9750052 4.35104397,17.9750052 L7.66837058,17.9750052 C8.03709028,17.9750052 8.30472702,17.7235524 8.30472702,17.3770571 L8.30472704,13.4282321 L12.2609538,13.4282321 C12.6300369,13.4282321 12.8979562,13.1762146 12.8979562,12.8290081 C12.8979562,12.4832658 12.6300369,12.232315 12.2609538,12.232315 L7.66835042,12.232315 C7.29926732,12.232315 7.03138834,12.4832658 7.03138834,12.8290081 L7.03138834,16.6728764 L4.47810936,16.6728764 C4.08405329,16.6728764 3.71149781,16.3041473 3.71149781,15.9141467 L3.71149781,7.65596663 L9.96333986,1.6107676 L18.8137433,10.0440359 C18.9033593,10.1296871 19.0964002,10.2204419 19.2781154,10.2204419 C19.4722666,10.2204419 19.6658928,10.1179532 19.7413366,10.0451444 C19.8260065,9.96338359 19.9136643,9.7848651 19.9150371,9.62623775 C19.9050438,9.54918302 19.7875074,9.31856264 19.7103072,9.1698286 Z" id="形状"></path>
                </g>
            </g>
        </g>
    </g>
</svg>