<?xml version="1.0" encoding="UTF-8"?>
<svg width="16px" height="18px" viewBox="0 0 16 18" version="1.1" xmlns="http://www.w3.org/2000/svg" xmlns:xlink="http://www.w3.org/1999/xlink">
    <title>mima</title>
    <g id="数据上报" stroke="none" stroke-width="1" fill="none" fill-rule="evenodd">
        <g id="我的/主页" transform="translate(-15.000000, -297.000000)">
            <g id="编组备份-2" transform="translate(0.000000, 283.000000)">
                <rect id="矩形备份" fill="#FFFFFF" x="0" y="0" width="375" height="47"></rect>
                <g id="mima" transform="translate(15.000000, 14.000000)" fill="#9E9E9E">
                    <path d="M2.90909091,6.3 L2.90909091,4.725 C2.90909091,2.11522499 5.1878788,0 8,0 C10.8121212,0 13.0909091,2.1141 13.0909091,4.725 L13.0909091,6.3 L13.3335757,6.3 C14.8055758,6.3 16,7.40947499 16,8.77499999 L16,15.525 C16,16.892325 14.8075152,18 13.3335757,18 L2.66666666,18 C1.19442425,18 0,16.890525 0,15.525 L0,8.77499999 C0,7.407675 1.19248484,6.3 2.66642425,6.3 L2.90909091,6.3 Z M4.36363636,6.3 L11.6363636,6.3 L11.6363636,4.725 C11.6363636,2.85974999 10.0089697,1.35 8,1.35 C5.99127273,1.35 4.36363636,2.860875 4.36363636,4.725 L4.36363636,6.3 Z M1.45454458,8.77499999 L1.45454458,15.525 C1.45454458,16.1451 1.99806061,16.6499992 2.66642425,16.6499992 L13.3333333,16.6499992 C13.6549262,16.6503588 13.9634587,16.5319476 14.1908594,16.3208913 C14.4182601,16.1098351 14.5458412,15.8234784 14.5454554,15.525 L14.5454554,8.77499999 C14.5454554,8.1549 14.0019394,7.64999919 13.3335758,7.64999919 L2.66666666,7.64999919 C2.34507376,7.64964118 2.03654132,7.7680524 1.80914063,7.97910865 C1.58173995,8.19016491 1.45415885,8.47652159 1.45454458,8.77499999 Z" id="形状"></path>
                </g>
            </g>
        </g>
    </g>
</svg>