<?xml version="1.0" encoding="UTF-8"?>
<svg width="16px" height="19px" viewBox="0 0 16 19" version="1.1" xmlns="http://www.w3.org/2000/svg" xmlns:xlink="http://www.w3.org/1999/xlink">
    <title>ditu_dingwei_o</title>
    <g id="数据上报" stroke="none" stroke-width="1" fill="none" fill-rule="evenodd">
        <g id="我的/主页" transform="translate(-14.000000, -203.000000)">
            <g id="编组" transform="translate(0.000000, 189.000000)">
                <g id="ditu_dingwei_o" transform="translate(14.000000, 14.000000)" fill="#9E9E9E">
                    <path d="M7.25333335,18.2651934 L2.34666667,13.4364641 L2.24,13.3314917 L2.13333335,13.2265193 C0.85333335,11.8618784 0,9.97237568 0,7.87292817 C0,3.56906078 3.62666668,0 8,0 C12.3733333,0 16,3.56906078 16,7.87292817 C16,9.97237568 15.1466667,11.8618784 13.8666667,13.2265193 L8.74666668,18.2651934 L8,19 L7.25333335,18.2651934 Z M8,17.5303867 L12.9066667,12.7016575 C14.1866667,11.441989 14.9333333,9.76243094 14.9333333,7.87292817 C14.9333333,4.09392265 11.84,1.04972376 8,1.04972376 C4.16,1.04972376 1.06666667,4.09392265 1.06666667,7.87292817 C1.06666667,9.76243094 1.81333335,11.441989 2.98666667,12.5966851 L8,17.5303867 L8,17.5303867 Z M8,11.5469613 C5.97333335,11.5469613 4.26666667,9.86740332 4.26666667,7.87292817 C4.26666667,5.87845303 5.97333335,4.19889503 8,4.19889503 C10.0266667,4.19889503 11.7333333,5.87845303 11.7333333,7.87292817 C11.7333333,9.86740332 10.0266667,11.5469613 8,11.5469613 L8,11.5469613 Z M8,10.4972376 C9.49333332,10.4972376 10.6666667,9.34254145 10.6666667,7.87292817 C10.6666667,6.4033149 9.49333335,5.24861877 8,5.24861877 C6.50666665,5.24861877 5.33333335,6.40331492 5.33333335,7.87292817 C5.33333335,9.34254142 6.50666668,10.4972376 8,10.4972376 L8,10.4972376 Z" id="形状"></path>
                </g>
            </g>
        </g>
    </g>
</svg>