<?xml version="1.0" encoding="UTF-8"?>
<svg width="12px" height="12px" viewBox="0 0 12 12" version="1.1" xmlns="http://www.w3.org/2000/svg" xmlns:xlink="http://www.w3.org/1999/xlink">
    <title>切片</title>
    <g id="数据上报" stroke="none" stroke-width="1" fill="none" fill-rule="evenodd">
        <g id="我的/主页" transform="translate(-349.000000, -207.000000)" fill="#9E9E9E">
            <g id="编组" transform="translate(0.000000, 189.000000)">
                <g id="icon/单色/角标" transform="translate(349.000000, 18.000000)">
                    <path d="M8.40457789,0 C8.55441318,0 8.70424848,0.0651872179 8.82419238,0.189635543 C9.05764788,0.444063234 9.05764788,0.849409207 8.82986796,1.10383689 L4.379,6.006 L8.82555097,10.884692 C9.0571389,11.1415443 9.0571389,11.5497204 8.83155649,11.8065727 C8.72431857,11.9287503 8.57440172,11.9987014 8.41704815,12 C8.25969458,12.0012628 8.10878382,11.9337601 7.99979175,11.8133424 L3.17473053,6.51939805 C3.0444562,6.37894767 2.98734605,6.18649729 3.00233623,5.9992558 C2.99061487,5.82085267 3.04710975,5.63770785 3.16980188,5.5002209 L7.98534175,0.195956724 C8.09923172,0.0655822881 8.25549933,0 8.40457789,0 Z" id="形状结合" transform="translate(6.000000, 6.000009) scale(-1, 1) translate(-6.000000, -6.000009) "></path>
                </g>
            </g>
        </g>
    </g>
</svg>