<?xml version="1.0" encoding="UTF-8"?>
<svg width="17px" height="14px" viewBox="0 0 17 14" version="1.1" xmlns="http://www.w3.org/2000/svg" xmlns:xlink="http://www.w3.org/1999/xlink">
    <title>形状</title>
    <g id="数据上报" stroke="none" stroke-width="1" fill="none" fill-rule="evenodd">
        <g id="登录/输入信息" transform="translate(-314.000000, -456.000000)" fill="#9E9E9E">
            <g id="igw-l-display-no" transform="translate(322.500000, 463.000000) scale(1, -1) translate(-322.500000, -463.000000) translate(314.000000, 456.000000)">
                <path d="M15.6863958,0.157998732 C15.9076969,0.368646851 15.9076969,0.710208325 15.6863958,0.920856444 L13.9744073,2.55068221 C15.991475,4.02907935 17,6.00439432 17,6.71243228 C17,7.89918224 14.1666667,12.6461821 8.5,12.6461821 C6.89622708,12.6461821 5.51940417,12.2659501 4.36953125,11.6938153 L2.11290521,13.8420013 C1.89160417,14.0526662 1.53281563,14.0526662 1.31151458,13.8420013 C1.09021354,13.6313363 1.09021354,13.2897917 1.31151458,13.0791267 L3.37287083,11.1168592 C1.12428438,9.62028998 0,7.46000047 0,6.71243228 C0,5.52568231 2.83333333,0.77868245 8.5,0.77868245 C10.2880104,0.77868245 11.7939271,1.25129214 13.01775,1.93554452 L14.8850229,0.157998732 C15.1063063,-0.052666244 15.4651125,-0.052666244 15.6863958,0.157998732 Z M13.1653844,3.32070425 L5.21552917,10.8884941 L5.25346042,10.905166 C6.24236458,11.3366271 7.32457396,11.5673185 8.5,11.5673185 C9.67542604,11.5673185 10.7576354,11.3366271 11.7465396,10.905166 C12.6160188,10.5258105 13.3998781,9.99639195 14.0776646,9.35763726 C14.6580375,8.81067027 15.1388719,8.20227549 15.4761094,7.61962171 C15.489001,7.59735329 15.5016094,7.57521973 15.5139521,7.55323789 L15.5322625,7.52038312 C15.5443042,7.49856984 15.5560979,7.47689143 15.5675906,7.4554153 L15.584626,7.42333596 C15.5930198,7.4073553 15.6012719,7.39147577 15.6093646,7.37571425 L15.6253021,7.34434292 L15.6331115,7.32876683 L15.6483938,7.29783378 C15.7086729,7.17479276 15.758274,7.0594555 15.7962583,6.95505859 L15.8039615,6.93361617 L15.8112219,6.91271319 L15.8147104,6.90246399 L15.8213688,6.88240387 L15.8275844,6.86295061 C15.8316042,6.85018967 15.8353406,6.83783331 15.8387938,6.82588153 L15.8437521,6.80831628 L15.8483031,6.79139161 L15.8524292,6.77515808 L15.8561479,6.7596157 L15.8595125,6.74434304 L15.8638333,6.72315348 L15.865976,6.71243228 L15.8653208,6.70927997 L15.8609292,6.6872307 L15.8578302,6.67276718 L15.8561479,6.66524885 L15.8524292,6.64970647 L15.8483031,6.63347295 L15.8437521,6.61654827 L15.8387938,6.59898303 C15.8353406,6.5870481 15.8316042,6.57467488 15.8275844,6.56189709 L15.8213688,6.54246069 L15.8147104,6.52240057 L15.8112396,6.51216822 L15.8039615,6.49126524 L15.7962583,6.46980597 C15.758274,6.36540906 15.7086729,6.25007179 15.6483938,6.12703077 L15.6331115,6.09609773 L15.6253198,6.08052164 L15.6093646,6.0491503 C15.6012044,6.03323605 15.5929581,6.01736194 15.584626,6.00152859 L15.5675906,5.96944926 C15.5560802,5.94795627 15.5443219,5.92629471 15.5322625,5.90448144 L15.5139521,5.87162667 C15.5014864,5.8494223 15.4888719,5.82729391 15.4761094,5.80524284 C15.1388719,5.22258907 14.6580375,4.61419428 14.0776469,4.06722729 C13.8014323,3.80691773 13.5076156,3.56476342 13.1975427,3.3435121 L13.1653844,3.32070425 L13.1653844,3.32070425 Z M8.5,1.85754605 C7.32457396,1.85754605 6.24236458,2.08823744 5.25346042,2.51969859 C4.38398125,2.89905401 3.60012187,3.42847261 2.92233542,4.06722729 C2.3419625,4.61419428 1.86112813,5.22258907 1.52389063,5.80524284 C1.51112813,5.82729391 1.49851364,5.8494223 1.48604792,5.87162667 L1.4677375,5.90448144 C1.45581139,5.92606313 1.44403509,5.94771954 1.43240937,5.96944926 L1.41537396,6.00152859 C1.40698021,6.01750926 1.39872812,6.03338878 1.39063542,6.0491503 L1.37469792,6.08052164 L1.36688854,6.09609773 L1.35160625,6.12703077 C1.29132708,6.25007179 1.24172604,6.36540906 1.20374167,6.46980597 L1.19603854,6.49124838 L1.18877812,6.51215136 L1.18528958,6.52240057 L1.17863125,6.54246069 L1.17241562,6.56191395 C1.16839583,6.57467488 1.16465937,6.58703124 1.16120625,6.59898303 L1.15624792,6.61654827 L1.15169687,6.63347295 L1.14757083,6.64970647 L1.14385208,6.66524885 L1.1404875,6.68052151 L1.13616667,6.70171107 L1.13400625,6.71243228 L1.13467917,6.71558458 L1.13907083,6.73763386 L1.14216979,6.75209737 L1.14385208,6.7596157 L1.14757083,6.77515808 L1.15169687,6.79139161 L1.15624792,6.80831628 L1.16120625,6.82588153 C1.16465937,6.83781646 1.16839583,6.85018967 1.17241562,6.86296746 L1.17863125,6.88240387 L1.18528958,6.90246399 L1.18876042,6.91269633 L1.19603854,6.93359932 L1.20374167,6.95505859 C1.24172604,7.0594555 1.29132708,7.17479276 1.35160625,7.29783378 L1.36688854,7.32876683 L1.37468021,7.34434292 L1.39063542,7.37571425 C1.39872812,7.39147577 1.40698021,7.4073553 1.41537396,7.42333596 L1.43240937,7.4554153 C1.44391979,7.47690829 1.45567812,7.49856984 1.4677375,7.52038312 L1.48604792,7.55323789 C1.49839062,7.57521973 1.51101667,7.59735329 1.52389062,7.61962171 C1.86112812,8.20227549 2.3419625,8.81067027 2.92235312,9.35763726 C3.31080313,9.72372603 3.73410312,10.0539089 4.18841042,10.3404989 L5.858625,8.75054049 C5.38425417,8.19411658 5.1,7.48488176 5.1,6.71243228 C5.1,4.924907 6.62222604,3.47584146 8.5,3.47584146 C9.31144896,3.47584146 10.0564917,3.74643394 10.6410083,4.19800579 L12.1856354,2.72761584 C12.0416162,2.65390811 11.8951773,2.58456749 11.7465396,2.51969859 C10.7576354,2.08823744 9.67542604,1.85754605 8.5,1.85754605 Z M11.9,6.71243228 C11.9,8.49995756 10.377774,9.94902309 8.5,9.94902309 C8.07792188,9.94902309 7.6738,9.87581208 7.30089792,9.74198242 L8.23235625,8.85527454 C8.32013646,8.86510231 8.40943958,8.87015949 8.5,8.87015949 C9.7518375,8.87015949 10.7666667,7.90410456 10.7666667,6.71243228 C10.7666667,6.62622433 10.7613542,6.54121325 10.7510302,6.45763504 L11.6825062,5.57094401 C11.8230927,5.92595757 11.9,6.31065673 11.9,6.71243228 Z M8.5,4.55470507 C7.2481625,4.55470507 6.23333333,5.52076 6.23333333,6.71243228 C6.23333333,7.18672769 6.39408958,7.62528575 6.66656771,7.98142874 L9.83308333,4.96711754 C9.45894167,4.70773513 8.99824167,4.55470507 8.5,4.55470507 Z" id="形状"></path>
            </g>
        </g>
    </g>
</svg>