<?xml version="1.0" encoding="UTF-8"?>
<svg width="96px" height="96px" viewBox="0 0 96 96" version="1.1" xmlns="http://www.w3.org/2000/svg" xmlns:xlink="http://www.w3.org/1999/xlink">
    <title>编组 2</title>
    <g id="数据上报" stroke="none" stroke-width="1" fill="none" fill-rule="evenodd">
        <g id="数据上报/首页" transform="translate(-247.000000, -614.000000)">
            <g id="编组-5备份-3" transform="translate(12.000000, 604.000000)">
                <g id="编组-2" transform="translate(235.000000, 10.000000)">
                    <circle id="椭圆形" fill="#FFFFFF" opacity="0.100000001" cx="48" cy="48" r="48"></circle>
                    <g id="xiezuo" transform="translate(14.000000, 25.000000)" fill-rule="nonzero" opacity="0.300000012">
                        <path d="M11.679744,46.7518091 L35.1804829,46.7518091 C35.4822769,46.7518091 36.1186759,46.5133974 36.1760112,46.483274 L40.9467082,44.0979255 C41.0809758,44.0305118 41.2489502,43.9299511 41.3832177,43.7955716 L36.6125207,39.0249865 C36.4782531,39.1593661 36.3776925,39.3273405 36.3102788,39.461496 L34.3450902,43.392321 L11.679744,43.392321 C10.7514055,43.392321 10,44.1433906 10,45.072065 C10,46.0004036 10.7514055,46.7518091 11.679744,46.7518091 Z M56.1479438,19.5732147 L38.9978692,36.6733449 L43.7348594,41.4102231 L60.9186408,24.3439117 L56.1479438,19.5732147 Z M64.4796982,13.6608516 C63.8078006,12.988954 62.7325404,12.988954 62.0944616,13.6608516 L58.5331803,17.221909 L63.2701705,21.9585632 L66.8313398,18.3977298 C67.5032374,17.7590911 67.5032374,16.684279 66.8313398,16.0123813 L64.4796982,13.6608516 Z" id="形状" fill="#CDADFF"></path>
                        <path d="M35.4985906,1.77635684e-14 C38.2771112,1.77635684e-14 40.5378227,2.26026362 40.5378227,5.03923214 L40.5378227,5.03923214 L40.5378227,21.8366725 C40.5378227,24.615193 38.2772232,26.8759046 35.4985906,26.8759046 L35.4985906,26.8759046 L30.4593585,26.8759046 L30.4593585,31.9151366 C30.4593585,32.5939772 30.0508447,33.2077557 29.4226204,33.4666602 C28.8027949,33.7253408 28.0762496,33.586482 27.5920354,33.1027157 L27.5920354,33.1027157 L21.3652243,26.8759046 L5.03923209,26.8759046 C2.26071152,26.8759046 2.30926389e-13,24.615305 2.30926389e-13,21.8366725 L2.30926389e-13,21.8366725 L2.30926389e-13,5.03923214 C2.30926389e-13,2.26026357 2.26059953,1.77635684e-14 5.03923209,1.77635684e-14 L5.03923209,1.77635684e-14 Z M30.4593585,10.0784642 C28.6071607,10.0784642 27.0998704,11.5857545 27.0998704,13.4379523 C27.0998704,15.2901501 28.6071607,16.7974404 30.4593585,16.7974404 C32.3115562,16.7974404 33.8188465,15.2901501 33.8188465,13.4379523 C33.8188465,11.5857545 32.3115562,10.0784642 30.4593585,10.0784642 Z M20.3808943,10.0784642 C18.5286965,10.0784642 17.0214062,11.5857545 17.0214062,13.4379523 C17.0214062,15.2901501 18.5286965,16.7974404 20.3808943,16.7974404 C22.2330921,16.7974404 23.7403824,15.2901501 23.7403824,13.4379523 C23.7403824,11.5857545 22.2330921,10.0784642 20.3808943,10.0784642 Z M10.1904471,10.0784642 C8.33824941,10.0784642 6.83095909,11.5857545 6.83095909,13.4379523 C6.83095909,15.2901501 8.33824935,16.7974404 10.1904471,16.7974404 C12.0426449,16.7974404 13.5499352,15.2901501 13.5499352,13.4379523 C13.5499352,11.5857545 12.0426449,10.0784642 10.1904471,10.0784642 Z" id="形状结合" fill="#FFFFFF"></path>
                    </g>
                </g>
            </g>
        </g>
    </g>
</svg>