<?xml version="1.0" encoding="UTF-8"?>
<svg width="42px" height="42px" viewBox="0 0 42 42" version="1.1" xmlns="http://www.w3.org/2000/svg" xmlns:xlink="http://www.w3.org/1999/xlink">
    <title>编组 9</title>
    <g id="数据上报" stroke="none" stroke-width="1" fill="none" fill-rule="evenodd">
        <g id="数据上报/首页" transform="translate(-22.000000, -614.000000)">
            <g id="编组-5备份-3" transform="translate(12.000000, 604.000000)">
                <g id="编组-9" transform="translate(10.000000, 10.000000)">
                    <circle id="椭圆形" fill="#FFFFFF" cx="21" cy="21" r="21"></circle>
                    <g id="ribao" transform="translate(10.500000, 9.000000)" fill-rule="nonzero">
                        <path d="M19.8569683,7.25933112 C18.4199819,5.71093853 13.551735,0.500000967 13.2860542,0.500000967 L2.92296449,0.500000967 C2.34450137,0.499456467 1.78957006,0.728990942 1.3805106,1.13800225 C0.97145114,1.54701355 0.741851335,2.10191783 0.74232796,2.68038102 L0.74232796,21.3196189 C0.741851335,21.898082 0.97145114,22.4529863 1.3805106,22.8619976 C1.78957006,23.2710089 2.34450137,23.5005434 2.92296449,23.500001 L18.0772922,23.500001 C18.6557109,23.5004752 19.2105762,23.2709106 19.6195801,22.8619067 C20.028584,22.4529028 20.2581486,21.8980375 20.257672,21.3196189 L20.257672,8.2684046 C20.2562163,7.89348653 20.1129753,7.53299981 19.8567115,7.25933112 L19.8569683,7.25933112 Z" id="形状" fill="#996CE1"></path>
                        <path d="M4.92288602,7.46905207 L9.80165749,7.46905207 C10.1874123,7.46905207 10.5001284,7.78176812 10.5001284,8.16752293 C10.5001284,8.55327773 10.1874123,8.86599379 9.80165749,8.86599379 L4.92288602,8.86599379 C4.53713122,8.86599379 4.22441516,8.55327773 4.22441516,8.16752293 C4.22441516,7.78176812 4.53713122,7.46905207 4.92288602,7.46905207 Z" id="路径" fill="#E6D6FF"></path>
                        <path d="M15.3773597,19.3158473 L4.92288602,19.3158473 C4.53713121,19.3158473 4.22441515,19.0031308 4.22441515,18.617376 C4.22441515,18.2316212 4.53713121,17.9189052 4.92288602,17.9189052 L15.3788998,17.9189052 C15.7646546,17.9193305 16.0770259,18.2323913 16.076601,18.6181461 C16.0761753,19.0039009 15.7631145,19.3162722 15.3773597,19.3158473 Z" id="路径" fill="#E6D6FF"></path>
                        <path d="M15.3773597,13.7411727 L4.92288602,13.7411727 C4.53713122,13.7411727 4.22441516,13.4284555 4.22441516,13.0427006 C4.22441516,12.6569458 4.53713122,12.3442298 4.92288602,12.3442298 L15.3788998,12.3442298 C15.6284394,12.3446883 15.8587789,12.4782398 15.9831516,12.6945767 C16.1075243,12.9109137 16.107035,13.1771692 15.9818681,13.3930476 C15.8567012,13.608926 15.6258725,13.7416301 15.3763329,13.7411727 L15.3773597,13.7411727 Z" id="路径" fill="#E6D6FF"></path>
                        <path d="M13.9829849,6.07365052 L13.9829849,3.28618448 L17.4691785,6.77314858 L14.680429,6.77314858 C14.4951203,6.77335281 14.3173426,6.69982984 14.1863095,6.56879676 C14.0552764,6.43776368 13.9817535,6.25998595 13.9819577,6.0746773 L13.9829849,6.07365052 Z" id="路径" fill="#E6D6FF"></path>
                    </g>
                </g>
            </g>
        </g>
    </g>
</svg>