<?xml version="1.0" encoding="UTF-8"?>
<svg width="18px" height="13px" viewBox="0 0 18 13" version="1.1" xmlns="http://www.w3.org/2000/svg" xmlns:xlink="http://www.w3.org/1999/xlink">
    <title>yanjing</title>
    <g id="数据上报" stroke="none" stroke-width="1" fill="none" fill-rule="evenodd">
        <g id="登录/输入信息" transform="translate(-290.000000, -456.000000)">
            <g id="编组-4" transform="translate(13.000000, 165.000000)">
                <g id="Form" transform="translate(0.000000, 112.000000)">
                    <rect id="Rectangle-2" fill="#FFFFFF" x="0" y="0" width="350" height="350" rx="8"></rect>
                    <g id="编组-2" transform="translate(19.000000, 163.000000)" fill="#F8F8F8" stroke="#6A79FF">
                        <rect id="Rectangle-3" x="0.5" y="0.5" width="311" height="44" rx="4"></rect>
                    </g>
                </g>
                <g id="yanjing" transform="translate(277.500000, 291.500000)" fill="#9E9E9E">
                    <path d="M8.4896613,11.9760479 C5.37914484,11.9760479 2.60413237,10.1285429 0.17077407,6.51936128 C-0.0481758306,6.1951068 -0.0481758306,5.78094111 0.17077407,5.45668662 C2.60413237,1.847505 5.37914484,0 8.4896613,0 C11.6001778,0 14.3751902,1.847505 16.8085485,5.45668662 C17.0274984,5.78094111 17.0274984,6.1951068 16.8085485,6.51936128 C14.3751902,10.1285429 11.6001778,11.9760479 8.4896613,11.9760479 Z M8.4896613,1.19760479 C5.91463635,1.19760479 3.52984344,2.76666667 1.32976859,5.98802395 C3.52984344,9.20938123 5.91463635,10.7784431 8.4896613,10.7784431 C11.0646863,10.7784431 13.4494792,9.20938123 15.649554,5.98802395 C13.4494792,2.76666667 11.0646863,1.19760479 8.4896613,1.19760479 Z M8.4896613,8.78243512 C6.8352576,8.78243512 5.49408994,7.53133731 5.49408994,5.98802395 C5.49408994,4.44471059 6.8352576,3.19361278 8.4896613,3.19361278 C10.144065,3.19361278 11.4852327,4.44471059 11.4852327,5.98802395 C11.4852327,7.53133731 10.144065,8.78243512 8.4896613,8.78243512 Z M8.4896613,7.58483033 C9.43509543,7.58483033 10.2015375,6.86986027 10.2015375,5.98802395 C10.2015375,5.10618763 9.43509543,4.39121757 8.4896613,4.39121757 C7.54422717,4.39121757 6.77778506,5.10618763 6.77778506,5.98802395 C6.77778506,6.86986027 7.54422717,7.58483033 8.4896613,7.58483033 Z" id="形状"></path>
                </g>
            </g>
        </g>
    </g>
</svg>