<?xml version="1.0" encoding="UTF-8"?>
<svg width="20px" height="20px" viewBox="0 0 20 20" version="1.1" xmlns="http://www.w3.org/2000/svg" xmlns:xlink="http://www.w3.org/1999/xlink">
    <title>个人中心</title>
    <g id="数据上报" stroke="none" stroke-width="1" fill="none" fill-rule="evenodd">
        <g id="数据上报/首页" transform="translate(-309.000000, -743.000000)" fill="#9E9E9E">
            <g id="底部栏/维保" transform="translate(0.000000, 730.000000)">
                <g id="编组-4" transform="translate(299.000000, 13.000000)">
                    <g id="编组" transform="translate(10.000000, 0.000000)">
                        <g id="wode1" transform="translate(0.119760, 0.000000)">
                            <path d="M9.94640719,9.95942863 C7.5730004,9.95238796 5.53540552,8.26899967 5.08072621,5.93954147 C4.62604689,3.61008326 5.88105073,1.28402341 8.07761649,0.385019692 C10.2741822,-0.51398403 12.7998929,0.264716528 14.1088951,2.24452009 C15.4178973,4.22432365 15.1452325,6.85324795 13.4577844,8.52226796 C12.5238611,9.44746567 11.2610095,9.96432174 9.94640719,9.95942863 L9.94640719,9.95942863 Z M9.94640719,2.03125 C8.30079706,2.03125 6.96676647,3.36528059 6.96676647,5.01089072 C6.96676647,6.65650085 8.30079706,7.99053144 9.94640719,7.99053144 C11.5920173,7.99053144 12.9260479,6.65650085 12.9260479,5.01089072 C12.9234103,3.36637434 11.5909236,2.03388756 9.94640719,2.03125 Z M18.8853293,19.8899326 C18.3369005,19.8872959 17.8937062,19.4419606 17.8937126,18.8935254 C17.8884333,16.1529256 15.6666516,13.9332864 12.9260479,13.9306512 L6.96676647,13.9306512 C4.2258467,13.9306512 2.00389222,16.1526057 2.00389222,18.8935254 C2.02970439,19.2651225 1.84609367,19.6200866 1.52789704,19.8137397 C1.20970041,20.0073928 0.810060065,20.0073928 0.491863435,19.8137397 C0.173666806,19.6200866 -0.00994391429,19.2651225 0.0158682635,18.8935254 C0.0158682635,15.0546504 3.12789139,11.9426272 6.96676647,11.9426272 L12.9260479,11.9426272 C16.764923,11.9426272 19.8769577,15.0546504 19.8769577,18.8935254 C19.8782206,19.1573476 19.7743099,19.4108016 19.5882074,19.5978032 C19.4021049,19.7848048 19.1491546,19.8899357 18.8853293,19.8899326 L18.8853293,19.8899326 Z" id="形状"></path>
                        </g>
                    </g>
                </g>
            </g>
        </g>
    </g>
</svg>