<?xml version="1.0" encoding="UTF-8"?>
<svg width="16px" height="16px" viewBox="0 0 16 16" version="1.1" xmlns="http://www.w3.org/2000/svg" xmlns:xlink="http://www.w3.org/1999/xlink">
    <title>guize</title>
    <defs>
        <filter id="filter-1">
            <feColorMatrix in="SourceGraphic" type="matrix" values="0 0 0 0 0.619608 0 0 0 0 0.619608 0 0 0 0 0.619608 0 0 0 1.000000 0"></feColorMatrix>
        </filter>
    </defs>
    <g id="数据上报" stroke="none" stroke-width="1" fill="none" fill-rule="evenodd">
        <g id="我的/主页" transform="translate(-14.000000, -252.000000)">
            <g id="icon/单色/我的订单" transform="translate(0.000000, 236.000000)" filter="url(#filter-1)">
                <g transform="translate(14.000000, 16.000000)" id="guize" fill="#9E9E9E">
                    <path d="M7.99309045,1.0044399 C11.8883431,1.0044399 14.9845696,4.10066638 14.9845696,7.99591903 C14.9845696,11.8911717 11.8883431,14.9873982 7.99309045,14.9873982 C4.0978378,14.9873982 1.00161132,11.8911717 1.00161132,7.99591903 C1.00161132,4.10066638 4.0978378,1.0044399 7.99309045,1.0044399 M7.99309045,0.0056571608 C3.59844642,0.0056571608 0.0028285804,3.601275 0.0028285804,7.99591903 C0.0028285804,12.3905631 3.59844642,15.9861809 7.99309045,15.9861809 C12.3877345,15.9861809 15.9833523,12.3905631 15.9833523,7.99591903 C15.9833523,3.60127502 12.3877345,0.0056571608 7.99309045,0.0056571608 L7.99309045,0.0056571608 Z" id="形状"></path>
                    <path d="M7.99309045,6.69750148 C7.39382081,6.69750148 6.99430773,7.09701457 6.99430773,7.59640594 L6.99430773,11.8911717 C6.99430773,12.3905631 7.39382082,12.7900762 7.99309045,12.7900762 C8.5923601,12.7900762 8.99187318,12.3905631 8.99187318,11.8911717 L8.99187318,7.59640594 C8.99187318,7.09701457 8.5923601,6.69750148 7.99309045,6.69750148 Z M7.99309045,5.19932739 C8.5923601,5.19932739 8.99187318,4.79981429 8.99187318,4.20054466 C8.99187318,3.60127502 8.59236008,3.20176193 7.99309045,3.20176193 C7.39382081,3.20176193 6.99430773,3.60127503 6.99430773,4.20054466 C6.99430773,4.79981429 7.39382081,5.19932739 7.99309045,5.19932739 Z" id="形状"></path>
                </g>
            </g>
        </g>
    </g>
</svg>